<svg xmlns="http://www.w3.org/2000/svg" width="103" height="28" viewBox="0 0 103 28">
  <g fill="#FFFFFF">
    <path d="M36.343309,19.6841697 C36.343309,20.8877455 36.6015733,21.8847152 37.1210753,22.6776242 C37.6380287,23.4726545 38.5105203,23.8693212 39.73855,23.8693212 C40.9657302,23.8693212 41.8505403,23.4726545 42.3891573,22.6776242 C42.9273495,21.8847152 43.1975076,20.8877455 43.1975076,19.6841697 L43.1975076,8.14477576 C43.1975076,6.9382303 42.9273495,5.94210909 42.3891573,5.15004848 C41.8505403,4.35586667 40.9657302,3.96004848 39.73855,3.96004848 C38.5105203,3.96004848 37.6380287,4.35586667 37.1210753,5.15004848 C36.6015733,5.94210909 36.343309,6.9382303 36.343309,8.14477576 L36.343309,19.6841697 Z M34.881652,8.23895758 C34.881652,7.43671515 34.9785011,6.69386667 35.1679516,6.00532121 C35.3586763,5.31847273 35.6479493,4.72665455 36.0412927,4.22944242 C36.4329369,3.73307879 36.9341735,3.34065455 37.5484008,3.05471515 C38.1630528,2.77047273 38.8919698,2.6292 39.73855,2.6292 C40.585555,2.6292 41.3208436,2.77047273 41.9439912,3.05471515 C42.5675635,3.34065455 43.082393,3.73307879 43.4855062,4.22944242 C43.8852212,4.72665455 44.1817154,5.31847273 44.3724402,6.00532121 C44.5644393,6.69386667 44.6578902,7.43671515 44.6578902,8.23895758 L44.6578902,19.5887152 C44.6578902,20.3918061 44.5644393,21.1350788 44.3724402,21.8223515 C44.1817154,22.5096242 43.8852212,23.1018667 43.4855062,23.5982303 C43.082393,24.0945939 42.5675635,24.4853212 41.9439912,24.7699879 C41.3208436,25.0550788 40.585555,25.1984727 39.73855,25.1984727 C38.8919698,25.1984727 38.1630528,25.0550788 37.5484008,24.7699879 C36.9341735,24.4853212 36.4329369,24.0945939 36.0412927,23.5982303 C35.6479493,23.1018667 35.3586763,22.5096242 35.1679516,21.8223515 C34.9785011,21.1350788 34.881652,20.3918061 34.881652,19.5887152 L34.881652,8.23895758 Z M52.4437518,14.5510061 C53.7333741,14.5510061 54.6708566,14.2455515 55.2544999,13.6439758 C55.8334707,13.0419758 56.124018,12.0653697 56.124018,10.7145818 L56.124018,8.11227879 C56.124018,6.9074303 55.8878421,5.94524848 55.4116673,5.22658182 C54.9354925,4.50918788 54.0714965,4.1494303 52.823927,4.1494303 L49.681853,4.1494303 L49.681853,14.5510061 L52.4437518,14.5510061 Z M52.823927,2.81858182 C54.5383262,2.81858182 55.7612586,3.31027879 56.4901756,4.29112727 C57.2212165,5.27494545 57.5848255,6.57949091 57.5848255,8.20603636 L57.5848255,10.6148848 C57.5848255,12.3907636 57.1740663,13.7139758 56.348725,14.5785818 C55.5225341,15.4474303 54.2197436,15.8784606 52.4437518,15.8784606 L49.681853,15.8784606 L49.681853,25.0068848 L48.2210455,25.0068848 L48.2210455,2.81858182 L52.823927,2.81858182 Z"/>
    <polygon points="62.385 25.007 60.927 25.007 60.927 2.819 62.385 2.819"/>
    <polygon points="67.411 25.007 66.078 25.007 66.078 2.819 67.983 2.819 74.647 21.553 74.647 2.819 75.983 2.819 75.983 25.007 74.364 25.007 67.411 5.227"/>
    <polygon points="80.973 25.007 79.638 25.007 79.638 2.819 81.543 2.819 88.207 21.553 88.207 2.819 89.541 2.819 89.541 25.007 87.922 25.007 80.973 5.227"/>
    <path d="M1.1915839,1.23068485 L1.1915839,13.7912303 C1.149531,20.9303818 6.84451366,26.7709273 13.8860388,26.812503 L13.9624986,26.812503 C21.0078468,26.8146242 26.7703689,21.0915939 26.8107227,14.0521394 C26.8336607,10.6369879 25.5015606,7.42377576 23.0633417,5.00262424 C20.6348927,2.59250303 17.4006421,1.25444242 13.9557022,1.23068485 L1.1915839,1.23068485 Z M13.9650473,27.9999576 L13.9624986,27.9999576 L13.8788176,27.9999576 C6.18101229,27.9588061 -0.0449413863,21.5773515 8.49553619e-05,13.7874121 L8.49553619e-05,0.0445030303 L13.9578261,0.0445030303 C17.7217734,0.0678363636 21.2516686,1.52935152 23.9043998,4.16092727 C26.5686,6.80650303 28.0260092,10.3222 28.0030712,14.0597758 C27.9576201,21.7470485 21.6607287,27.9999576 13.9650473,27.9999576 L13.9650473,27.9999576 Z"/>
    <polygon points="14.407 17.716 13.245 17.716 13.245 2.968 14.407 2.968"/>
    <path d="M94.564705,19.6841697 C94.564705,20.8877455 94.8238188,21.8847152 95.341197,22.6776242 C95.8598495,23.4726545 96.7331906,23.8693212 97.9612203,23.8693212 C99.1871262,23.8693212 100.071512,23.4726545 100.611403,22.6776242 C101.149595,21.8847152 101.419753,20.8877455 101.419753,19.6841697 L101.419753,8.14477576 C101.419753,6.9382303 101.149595,5.94210909 100.611403,5.15004848 C100.071512,4.35586667 99.1871262,3.96004848 97.9612203,3.96004848 C96.7331906,3.96004848 95.8598495,4.35586667 95.341197,5.15004848 C94.8238188,5.94210909 94.564705,6.9382303 94.564705,8.14477576 L94.564705,19.6841697 Z M93.1064462,8.23895758 C93.1064462,7.43671515 93.1998971,6.69386667 93.3901971,6.00532121 C93.5821962,5.31847273 93.8714692,4.72665455 94.2609896,4.22944242 C94.6534833,3.73307879 95.1568438,3.34065455 95.7697968,3.05471515 C96.3848736,2.77047273 97.1154897,2.6292 97.9612203,2.6292 C98.8065262,2.6292 99.5443635,2.77047273 100.167086,3.05471515 C100.791933,3.34065455 101.303789,3.73307879 101.704778,4.22944242 C102.109166,4.72665455 102.406085,5.31847273 102.592987,6.00532121 C102.784561,6.69386667 102.880136,7.43671515 102.880136,8.23895758 L102.880136,19.5887152 C102.880136,20.3918061 102.784561,21.1350788 102.592987,21.8223515 C102.406085,22.5096242 102.109166,23.1018667 101.704778,23.5982303 C101.303789,24.0945939 100.791933,24.4853212 100.167086,24.7699879 C99.5443635,25.0550788 98.8065262,25.1984727 97.9612203,25.1984727 C97.1154897,25.1984727 96.3848736,25.0550788 95.7697968,24.7699879 C95.1568438,24.4853212 94.6534833,24.0945939 94.2609896,23.5982303 C93.8714692,23.1018667 93.5821962,22.5096242 93.3901971,21.8223515 C93.1998971,21.1350788 93.1064462,20.3918061 93.1064462,19.5887152 L93.1064462,8.23895758 Z M15.1610913,4.88706061 L15.1610913,6.22342424 C18.9314103,6.86445455 21.8046006,10.1349394 21.8046006,14.0842121 C21.8046006,18.4882727 18.2267056,22.0616667 13.8149736,22.0616667 C9.40324172,22.0616667 5.82747055,18.4882727 5.82747055,14.0842121 C5.82747055,10.1408788 8.69216534,6.87590909 12.4539887,6.22893939 L12.4539887,4.88918182 C7.97471731,5.54675758 4.53190128,9.39124242 4.53190128,14.049 C4.53190128,19.1700303 8.68664324,23.3229394 13.8149736,23.3229394 C18.9437288,23.3229394 23.1001699,19.1700303 23.1001699,14.049 C23.1001699,9.38657576 19.6484335,5.53784848 15.1610913,4.88706061 L15.1610913,4.88706061 Z"/>
  </g>
</svg>
